# AST/ASF file generated using VICON BodyLanguage
# -----------------------------------------------
:version 1.10
:name VICON
:units
  mass 1.0
  length 0.45
  angle deg
:documentation
   .ast/.asf automatically generated from VICON data using
   VICON BodyBuilder and BodyLanguage model FoxedUp or BRILLIANT.MOD
:root
   order TX TY TZ RX RY RZ
   axis XYZ
   position 0 0 0  
   orientation 0 0 0 
:bonedata
  begin
     id 1 
     name lhipjoint
     direction 0.693937 -0.600361 0.397515 
     length 2.37164 
     axis 0 0 0  XYZ
  end
  begin
     id 2 
     name lfemur
     direction 0.34202 -0.939693 0  
     length 6.18497  
     axis 0 0 20  XYZ
    dof rx ry rz
    limits (-160.0 20.0)
           (-70.0 70.0)
           (-60.0 70.0)
  end
  begin
     id 3 
     name ltibia
     direction 0.34202 -0.939693 0   
     length 6.91601   
     axis 0 0 20   XYZ
    dof rx
    limits (-10.0 170.0)
  end
  begin
     id 4 
     name lfoot
     direction 0.0978718 -0.2689 0.958182   
     length 1.81453   
     axis -90 7.62852e-016 20   XYZ
    dof rx rz
    limits (-45.0 90.0)
           (-70.0 20.0)
  end
  begin
     id 5 
     name ltoes
     direction 1.53569e-011 -4.21951e-011 1   
     length 0.912052   
     axis -90 7.62852e-016 20   XYZ
    dof rx
    limits (-90.0 20.0)
  end
  begin
     id 6 
     name rhipjoint
     direction -0.643996 -0.637876 0.422354   
     length 2.23216  
     axis 0 0 0  XYZ 
  end
  begin
     id 7 
     name rfemur
     direction -0.34202 -0.939693 0   
     length 6.15404   
     axis 0 0 -20   XYZ
    dof rx ry rz
    limits (-160.0 20.0)
           (-70.0 70.0)
           (-70.0 60.0)
  end
  begin
     id 8 
     name rtibia
     direction -0.34202 -0.939693 0   
     length 6.86744   
     axis 0 0 -20   XYZ
    dof rx
    limits (-10.0 170.0)
 end
 begin
     id 9 
     name rfoot
     direction -0.118701 -0.326127 0.937844   
     length 1.9243  
     axis -90 -7.62852e-016 -20   XYZ
    dof rx rz
    limits (-45.0 90.0)
           (-20.0 70.0)
  end
  begin
     id 10 
     name rtoes
     direction -1.5356e-011 -4.2181e-011 1   
     length 0.958865   
     axis -90 -7.62852e-016 -20   XYZ
    dof rx
    limits (-90.0 20.0)
  end
  begin
     id 11 
     name lowerback
     direction 0.0310826 0.968686 -0.246334   
     length 2.00021   
     axis 0 0 0   XYZ
    dof rx ry rz
    limits (-20.0 45.0)
           (-30.0 30.0)
           (-30.0 30.0)
  end
  begin
     id 12 
     name upperback
     direction -0.0152834 0.999474 -0.0286152   
     length 2.03728   
     axis 0 0 0   XYZ
    dof rx ry rz
    limits (-20.0 45.0)
           (-30.0 30.0)
           (-30.0 30.0)
  end
  begin
     id 13 
     name thorax
     direction -0.0323701 0.996236 0.0804149   
     length 2.16   
     axis 0 0 0   XYZ
    dof rx ry rz
    limits (-20.0 45.0)
           (-30.0 30.0)
           (-30.0 30.0)
  end
  begin
     id 14 
     name lowerneck
     direction 0.0307935 0.982251 0.185027   
     length 1.43558   
     axis 0 0 0   XYZ
    dof rx ry rz
    limits (-20.0 45.0)
           (-30.0 30.0)
           (-30.0 30.0)
  end
  begin
     id 15 
     name upperneck
     direction -0.0927153 0.994775 0.0427454   
     length 1.44603   
     axis 0 0 0   XYZ
    dof rx ry rz
    limits (-20.0 45.0)
           (-30.0 30.0)
           (-30.0 30.0)
  end
  begin
     id 16
     name head
     direction -0.0341265 0.999406 -0.00472033  
     length 1.45931  
     axis 0 0 0   XYZ
    dof rx ry rz
    limits (-20.0 45.0)
           (-30.0 30.0)
           (-30.0 30.0)
  end
  begin
     id 17 
     name lclavicle
     direction 0.820755 0.555306 -0.134151  
     length 2.66075  
     axis 0 0 0   XYZ
    dof ry rz
    limits (-20.0 10.0)
           (0.0 20.0)
  end
  begin
     id 18 
     name lhumerus
     direction 1 -4.48971e-011 5.24853e-027   
     length 5.0546   
     axis -180 -30 -90   XYZ
    dof rx ry rz
    limits (-60.0 90.0)
           (-90.0 90.0)
           (-90.0 90.0)
  end
  begin
     id 19
     name lradius
     direction 1 -4.48971e-011 2.76575e-028   
     length 3.39013   
     axis -180 -30 -90   XYZ
    dof rx
    limits (-10.0 170.0)
  end
  begin
     id 20
     name lwrist
     direction 1 -4.48939e-011 -2.27826e-027   
     length 1.69507   
     axis 2.17013e-015 90 90   XYZ
    dof ry
    limits (-180.0 0.0)
 end
  begin
     id 21 
     name lhand
     direction 1 -4.49009e-011 -4.55652e-027   
     length 0.572425   
     axis 2.90745e-015 90 90   XYZ
    dof rx rz
    limits (-90.0 90.0)
           (-45.0 45.0)
  end
  begin
     id 22 
     name lfingers
     direction 1 -4.48955e-011 -9.11303e-027   
     length 0.461504   
     axis 5.81489e-015 90 90   XYZ
    dof rx
    limits (0.0 90.0)
  end
  begin
     id 23
     name lthumb
     direction 0.707107 -6.34929e-011 0.707107   
     length 0.66263   
     axis -90 45 2.85299e-015   XYZ
    dof rx rz
    limits (-45.0 45.0)
           (-45.0 45.0)
  end
  begin
     id 24 
     name rclavicle
     direction -0.754477 0.632921 -0.173712   
     length 2.73081  
     axis 0 0 0   XYZ 
    dof ry rz
    limits (-10.0 20.0)
           (-20.0 0.0)
  end
  begin
     id 25 
     name rhumerus
     direction -1 -4.48969e-011 5.1496e-027  
     length 5.0701   
     axis -180 30 90   XYZ
    dof rx ry rz
    limits (-90.0 60.0)
           (-90.0 90.0)
           (-90.0 90.0)
  end
  begin
     id 26 
     name rradius
     direction -1 -4.48967e-011 -7.15624e-028   
     length 3.14957   
     axis -180 30 90   XYZ
    dof rx
    limits (-10.0 170.0)
  end
  begin
     id 27 
     name rwrist
     direction -1 -4.48938e-011 -2.27826e-027   
     length 1.57479   
     axis 2.17013e-015 -90 -90   XYZ
    dof ry
    limits (-180.0 0.0)
  end
  begin
     id 28
     name rhand
     direction -1 -4.49008e-011 -4.55652e-027   
     length 0.718191   
     axis 2.90745e-015 -90 -90   XYZ
    dof rx rz
    limits (-90.0 90.0)
           (-45.0 45.0)
  end
  begin
     id 29
     name rfingers
     direction -1 -4.48953e-011 -9.11303e-027   
     length 0.579024   
     axis 5.81489e-015 -90 -90   XYZ
    dof rx
    limits (0.0 90.0)
  end
  begin
     id 30
     name rthumb
     direction -0.707107 -6.34937e-011 0.707107   
     length 0.831366   
     axis -90 -45 -2.85299e-015   XYZ
    dof rx rz
    limits (-45.0 45.0)
           (-45.0 45.0)
  end
:hierarchy
  begin
    root lhipjoint rhipjoint lowerback
    lhipjoint lfemur
    lfemur ltibia
    ltibia lfoot
    lfoot ltoes
    rhipjoint rfemur
    rfemur rtibia
    rtibia rfoot
    rfoot rtoes
    lowerback upperback
    upperback thorax
    thorax lowerneck lclavicle rclavicle
    lowerneck upperneck
    upperneck head
    lclavicle lhumerus
    lhumerus lradius
    lradius lwrist
    lwrist lhand lthumb
    lhand lfingers
    rclavicle rhumerus
    rhumerus rradius
    rradius rwrist
    rwrist rhand rthumb
    rhand rfingers
  end

#!OML:ASF H:\Male1\Project 1\Capture day 1\Session 1\Male1.ASF
:FULLY-SPECIFIED
:DEGREES
49
root 6.04956 15.3928 3.51822 176.827 3.44842 178.41
lowerback 7.1631 1.37608 -0.12553
upperback 3.16538 2.04163 -1.40612
thorax -0.701566 1.12868 -1.53165
lowerneck 1.12043 7.63849 12.2985
upperneck -1.5191 10.3132 -8.77255
head 0.464557 5.15357 -4.48402
rclavicle -4.07509e-015 7.95139e-016
rhumerus -47.4528 18.9329 -96.1865
rradius 59.993
rwrist -18.8419
rhand -22.6555 8.59848
rfingers 7.12502
rthumb 3.77577 -21.3478
lclavicle -4.07509e-015 7.95139e-016
lhumerus -46.7314 -9.83553 87.9029
lradius 60.4869
lwrist 3.29324
lhand -33.4173 -6.00756
lfingers 7.12502
lthumb -6.61704 23.8691
rfemur -4.86682 11.4955 20.2789
rtibia 26.0747
rfoot -23.5357 -25.1376
rtoes -29.2728
lfemur -5.6264 -7.90711 -19.8818
ltibia 26.9239
lfoot -20.9252 19.4186
ltoes 2.16357
50
root 6.05872 15.3964 3.50286 176.843 3.60874 178.479
lowerback 7.08346 1.416 -0.210192
upperback 3.09622 2.07997 -1.31033
thorax -0.734379 1.14177 -1.38731
lowerneck 1.29936 7.66901 12.2801
upperneck -1.79998 10.3632 -8.74362
head 0.355475 5.17768 -4.48589
rclavicle 5.31749e-015 1.15295e-014
rhumerus -48.3444 19.3199 -96.1691
rradius 62.1353
rwrist -19.0671
rhand -22.5988 9.07675
rfingers 7.12502
rthumb 3.83055 -20.8686
lclavicle 5.31749e-015 1.15295e-014
lhumerus -47.9538 -10.2725 88.2035
lradius 63.8195
lwrist 3.29511
lhand -34.0489 -6.23766
lfingers 7.12502
lthumb -7.22673 23.6189
rfemur -4.73518 11.723 20.4221
rtibia 25.9179
rfoot -23.5462 -25.1585
rtoes -29.1542
lfemur -4.96877 -9.84163 -20.1602
ltibia 26.2047
lfoot -20.571 22.9698
ltoes -0.446523
51
root 6.06852 15.3991 3.49104 176.879 3.76679 178.706
lowerback 6.94299 1.4455 -0.250558
upperback 3.09779 2.1136 -1.17672
thorax -0.660881 1.15498 -1.22509
lowerneck 1.46271 7.68871 12.354
upperneck -2.20846 10.3927 -8.81297
head 0.219421 5.18863 -4.53477
rclavicle 8.17502e-015 -2.38542e-015
rhumerus -49.0075 19.4973 -96.1099
rradius 64.2716
rwrist -18.9757
rhand -22.5949 8.81569
rfingers 7.12502
rthumb 3.83431 -21.1296
lclavicle 8.17502e-015 -2.38542e-015
lhumerus -48.874 -10.6748 88.3906
lradius 66.948
lwrist 3.32059
lhand -34.5894 -6.54407
lfingers 7.12502
lthumb -7.74847 23.294
rfemur -4.67845 11.9883 20.8007
rtibia 25.8376
rfoot -23.2519 -25.6191
rtoes -29.9713
lfemur -4.40532 -10.6936 -20.0144
ltibia 25.5945
lfoot -20.7121 24.2705
ltoes -1.75477
52
root 6.07376 15.398 3.47664 176.848 3.98973 178.897
lowerback 6.81537 1.53645 -0.180638
upperback 3.14961 2.24267 -1.16083
thorax -0.532457 1.22114 -1.25162
lowerneck 1.57985 7.66458 12.5458
upperneck -2.65144 10.3582 -8.89978
head 0.0808883 5.16439 -4.60807
rclavicle 1.13059e-014 -3.37934e-015
rhumerus -49.4922 19.3277 -96.0857
rradius 66.3095
rwrist -18.7069
rhand -22.6027 8.62216
rfingers 7.12502
rthumb 3.82676 -21.3232
lclavicle 1.13059e-014 -3.37934e-015
lhumerus -49.6096 -11.2566 88.4636
lradius 69.8764
lwrist 3.26352
lhand -35.1033 -6.82504
lfingers 7.12502
lthumb -8.24443 22.9941
rfemur -4.61705 12.256 21.1258
rtibia 25.89
rfoot -23.2208 -25.8635
rtoes -30.2157
lfemur -3.77878 -11.6894 -19.9415
ltibia 25.0051
lfoot -20.9153 25.1056
ltoes -3.20259
53
root 6.07608 15.3948 3.46441 176.775 4.08992 178.706
lowerback 6.78046 1.64132 -0.416382
upperback 3.17509 2.37417 -1.29219
thorax -0.487684 1.28863 -1.26199
lowerneck 1.69063 7.59653 12.8115
upperneck -3.08511 10.2656 -9.0061
head -0.0553605 5.10983 -4.7
rclavicle 1.46107e-014 -9.14409e-015
rhumerus -49.9421 18.8741 -95.9975
rradius 68.2297
rwrist -18.6678
rhand -22.4103 9.33031
rfingers 7.12502
rthumb 4.01253 -20.6116
lclavicle 1.46107e-014 -9.14409e-015
lhumerus -50.336 -11.9481 88.5006
lradius 72.6673
lwrist 2.98491
lhand -35.514 -6.82702
lfingers 7.12502
lthumb -8.64078 22.9762
rfemur -4.54055 12.4299 20.982
rtibia 25.9944
rfoot -23.4303 -25.8348
rtoes -29.8752
lfemur -3.30035 -11.4579 -20.0338
ltibia 24.4351
lfoot -20.6236 24.8492
ltoes -4.98136
54
root 6.07622 15.395 3.45741 176.832 4.09455 178.335
lowerback 6.72278 1.68537 -0.854485
upperback 3.11084 2.40547 -1.44685
thorax -0.531703 1.30147 -1.17736
lowerneck 1.82473 7.57429 12.9553
upperneck -3.45059 10.2384 -9.07384
head -0.17663 5.09017 -4.75907
rclavicle -2.07233e-014 1.66979e-014
rhumerus -50.6825 18.7388 -95.9302
rradius 70.198
rwrist -18.9749
rhand -22.1618 10.4059
rfingers 7.12502
rthumb 4.25255 -19.5314
lclavicle -2.07233e-014 1.66979e-014
lhumerus -51.0801 -12.4026 88.4418
lradius 75.3255
lwrist 2.43964
lhand -35.8104 -7.18397
lfingers 7.12502
lthumb -8.92686 22.6072
rfemur -4.62985 12.5698 20.5847
rtibia 26.0705
rfoot -23.5645 -25.8799
rtoes -29.5829
lfemur -3.00742 -11.466 -20.3112
ltibia 23.8662
lfoot -20.2923 24.9428
ltoes -6.95081
55
root 6.07422 15.3985 3.44814 176.947 4.22053 178.373
lowerback 6.59623 1.73064 -0.816785
upperback 3.06374 2.46426 -1.50323
thorax -0.505274 1.32952 -1.25667
lowerneck 1.81882 7.60681 12.9474
upperneck -3.63962 10.2718 -9.05617
head -0.229165 5.10167 -4.7565
rclavicle -2.41026e-014 1.43125e-014
rhumerus -51.2229 18.4306 -95.8351
rradius 72.132
rwrist -18.9074
rhand -21.8933 11.0215
rfingers 7.12502
rthumb 4.51184 -18.9105
lclavicle -2.41026e-014 1.43125e-014
lhumerus -51.7014 -12.8145 88.3078
lradius 77.8557
lwrist 1.93718
lhand -36.017 -7.73028
lfingers 7.12502
lthumb -9.12625 22.0523
rfemur -4.75623 12.8334 20.6437
rtibia 26.1332
rfoot -23.6297 -26.1051
rtoes -29.6029
lfemur -2.77275 -11.4172 -20.2098
ltibia 23.3382
lfoot -20.8288 24.807
ltoes -5.37434
